<svg width="56" height="56" viewBox="0 0 56 56" fill="none" xmlns="http://www.w3.org/2000/svg">
<path fill-rule="evenodd" clip-rule="evenodd" d="M28 18.6518C28.0773 18.6616 28.1557 18.6667 28.2345 18.6667C28.6815 18.6667 29.1219 18.6613 29.5556 18.6508V26.8333V30.3333H51.2988H51.8864C54.143 30.3333 56 28.49 56 26.25V20.4167C56 18.1767 54.143 16.3333 51.8864 16.3333H42.4508C49.0379 13.7732 52.1111 9.58737 52.1111 6.27453C52.1111 3.38072 49.8166 0.00230766 43.346 0C34.9945 0 30.2647 5.9226 27.9997 11.3481C25.7347 5.92231 21.0055 0 12.6564 0C6.18581 0 3.88889 3.37883 3.88889 6.273C3.88889 9.58637 6.96231 13.7729 13.55 16.3333H4.11358C1.85699 16.3333 0 18.1767 0 20.4167V26.25C0 28.49 1.85699 30.3333 4.11358 30.3333H4.70123H26.4444V26.8333V18.6508C26.8781 18.6613 27.3185 18.6667 27.7655 18.6667C27.8444 18.6667 27.9227 18.6616 28 18.6518ZM30.4694 15.1544C31.5462 11.3214 34.7934 3.4638 43.346 3.4638C45.8531 3.4638 48.5296 4.19994 48.5296 6.27222C48.5296 7.66374 47.3191 9.84448 43.9214 11.7945C41.4717 13.1998 37.2169 14.8498 30.4694 15.1544ZM26.4444 34.2222H4.66667V51.9883C4.66667 54.189 6.52661 56 8.78679 56H26.4444V34.2222ZM51.3333 51.9883V34.2222H29.5556V56H47.2132C49.4734 56 51.3333 54.189 51.3333 51.9883ZM12.6564 3.46192C10.1493 3.46192 7.47037 4.20046 7.47037 6.273C7.47037 9.22024 12.802 14.5908 25.5282 15.1563C24.4538 11.3205 21.2066 3.46192 12.6564 3.46192Z" fill="#FDD6BA"/>
</svg>
